# Blender 4.4.1
# www.blender.org
mtllib Luger.mtl
o Luger_pistol
v -79.305397 20.714983 -17.487629
v -79.239456 17.603012 -20.622704
v -78.962280 20.876421 -17.487629
v -78.696922 21.405113 -17.081856
v -79.913864 21.405113 -17.081856
v -79.648514 20.876421 -17.487629
v -79.305397 20.964113 -16.911592
v -78.978706 21.093279 -16.911592
v -78.843391 21.405113 -16.911592
v -78.978706 21.716948 -16.911592
v -79.305397 21.846113 -16.911592
v -79.632080 21.716948 -16.911592
v -79.767395 21.405113 -16.911592
v -79.632080 21.093279 -16.911592
v -79.305397 20.964113 -14.210539
v -78.978706 21.093279 -14.210539
v -78.843391 21.405113 -14.210541
v -78.978706 21.716948 -14.210539
v -79.305397 21.846113 -14.210541
v -79.632080 21.716948 -14.210539
v -79.767395 21.405113 -14.210541
v -79.632080 21.093279 -14.210539
v -79.305397 20.920013 -14.210539
v -78.946045 21.062096 -14.210539
v -78.797195 21.405113 -14.210541
v -78.946045 21.748131 -14.210539
v -79.305397 21.890213 -14.210541
v -79.664742 21.748131 -14.210539
v -79.813591 21.405113 -14.210541
v -79.664742 21.062096 -14.210539
v -79.010887 21.109890 -13.209818
v -78.883614 21.406584 -13.210654
v -79.013435 21.702381 -13.211366
v -79.599617 21.700336 -13.211088
v -79.726891 21.403643 -13.210255
v -79.597061 21.107845 -13.209538
v -79.125717 21.819172 -14.210540
v -79.485069 21.819172 -14.210540
v -78.946045 21.748131 -13.710539
v -79.305397 21.890213 -13.710541
v -79.664742 21.748131 -13.710539
v -79.163338 21.761024 -13.211451
v -79.485069 21.819172 -13.210540
v -79.125717 21.819172 -13.710540
v -79.485069 21.819172 -13.710540
v -79.305397 21.890213 -13.363507
v -79.125717 21.819172 -14.210540
v -79.485069 21.819172 -14.210540
v -79.305397 21.890213 -13.710541
v -79.125717 21.819172 -13.710540
v -79.485069 21.819172 -13.710540
v -79.305397 22.140785 -14.210541
v -79.125717 21.977852 -14.210540
v -79.485069 21.977852 -14.210540
v -79.305397 22.064877 -13.710541
v -79.125717 21.901941 -13.710540
v -79.485069 21.901941 -13.710540
v -79.664742 21.062096 -13.210539
v -79.303474 20.992987 -13.209374
v -79.485069 21.819172 -13.210540
v -79.664742 21.748131 -13.210539
v -79.813591 21.405113 -13.210541
v -79.305397 21.817245 -13.210540
v -79.305397 20.920013 -13.210539
v -78.946045 21.062096 -13.210539
v -78.797195 21.405113 -13.210541
v -78.946045 21.748131 -13.210539
v -79.125717 21.819172 -13.210540
v -79.305397 21.890213 -13.210541
v -79.664742 21.062096 -13.210539
v -79.450226 21.760025 -13.211314
v -79.664742 21.748131 -13.210539
v -79.813591 21.405113 -13.210541
v -79.163582 21.763456 -14.211444
v -79.450470 21.762455 -14.211307
v -79.303719 20.995417 -14.209367
v -79.011131 21.112322 -14.209809
v -78.883858 21.409014 -14.210647
v -79.013680 21.704811 -14.211358
v -79.305634 21.819675 -14.210532
v -79.597305 21.110277 -14.209531
v -79.599854 21.702766 -14.211080
v -79.727135 21.406075 -14.210247
v -78.925346 20.842379 -21.063393
v -79.305397 20.667183 -21.063393
v -78.793472 21.405113 -21.581154
v -78.893517 22.004742 -21.259373
v -79.305397 22.179939 -21.259373
v -79.717278 22.004742 -21.259373
v -79.817314 21.405113 -21.581154
v -79.685440 20.842379 -21.063393
v -79.292847 17.722179 -21.543926
v -79.192253 17.607529 -20.620424
v -79.393478 17.608356 -20.627464
v -79.187302 17.660042 -21.494816
v -79.398392 17.660030 -21.494856
v -79.396042 17.637302 -21.113293
v -79.189644 17.637316 -21.113262
v -78.971718 20.894146 -18.395973
v -79.228676 20.888662 -18.375710
v -78.961006 20.923260 -20.994785
v -79.305397 21.022076 -20.994785
v -79.632668 20.894146 -18.395973
v -79.649780 20.923260 -20.994785
v -79.641228 20.908703 -19.796129
v -78.969566 20.908703 -19.796129
v -79.045570 20.303707 -18.989574
v -79.228966 20.298330 -18.976814
v -79.036835 20.326939 -20.824547
v -79.305397 20.424675 -20.797691
v -79.562050 20.303829 -18.992510
v -79.573952 20.326939 -20.824547
v -79.568230 20.316570 -20.013678
v -79.042557 20.316570 -20.013678
v -79.108795 18.002571 -20.179039
v -79.350029 17.997633 -20.176899
v -79.099815 18.008642 -21.600708
v -79.296196 18.081518 -21.632664
v -79.483643 18.002871 -20.186378
v -79.492577 18.008636 -21.600723
v -79.488297 18.006033 -20.976852
v -79.104095 18.006039 -20.976837
v -79.228737 20.694448 -18.452953
v -78.987862 20.700356 -18.471344
v -78.977585 20.794472 -20.896767
v -79.305397 20.891788 -20.887440
v -79.617226 20.700487 -18.471972
v -79.633202 20.794472 -20.896767
v -79.625259 20.751537 -19.785721
v -78.985527 20.751537 -19.785721
v -79.305397 20.853930 -17.081856
v -78.875137 21.015368 -17.081856
v -78.943604 21.083462 -21.581154
v -79.305397 20.950459 -21.581154
v -79.667183 21.083462 -21.581154
v -79.735649 21.015368 -17.081856
v -79.305397 20.700119 -18.599495
v -78.860741 21.004782 -18.325247
v -78.676430 21.405113 -18.325247
v -78.921089 21.981285 -18.504013
v -79.305397 22.146999 -18.504013
v -79.689697 21.981285 -18.504013
v -79.934357 21.405113 -18.325247
v -79.750046 21.004782 -18.325247
v -78.950790 20.865835 -18.599495
v -79.659996 20.865835 -18.599495
v -79.305397 21.859768 -21.581154
v -78.943604 21.726765 -21.581154
v -79.667183 21.726765 -21.581154
v -78.860741 21.805447 -18.325247
v -79.750046 21.805447 -18.325247
v -79.305397 21.971161 -18.325247
v -78.869911 21.011522 -17.533459
v -78.689476 21.405113 -17.533459
v -79.305397 21.961695 -17.533459
v -79.921310 21.405113 -17.533459
v -79.740875 21.011522 -17.533459
v -78.958107 20.872576 -17.891464
v -79.652679 20.872576 -17.891464
v -79.305397 20.365593 -18.194912
v -78.869911 21.798704 -17.533459
v -78.875137 21.794861 -17.081856
v -79.305397 21.956295 -17.081856
v -79.735649 21.794861 -17.081856
v -79.740875 21.798704 -17.533459
v -79.305397 22.011589 -17.533459
v -78.828835 20.981325 -21.414875
v -79.305397 20.806129 -21.414875
v -78.631027 21.405113 -21.414875
v -78.828835 21.828903 -21.414875
v -79.305397 22.004097 -21.414875
v -79.781952 21.828903 -21.414875
v -79.979759 21.405113 -21.414875
v -79.781952 20.981325 -21.414875
v -79.305397 20.362526 -18.424351
v -78.866936 21.009338 -17.790035
v -78.685249 21.405113 -17.790035
v -78.866936 21.800888 -17.790035
v -79.305397 21.964762 -17.790035
v -79.743851 21.800888 -17.790035
v -79.925537 21.405113 -17.790035
v -79.743851 21.009338 -17.790035
v -78.955734 20.870392 -18.120899
v -79.655052 20.870392 -18.120899
v -79.067116 20.893726 -21.414875
v -79.133835 20.795702 -17.487629
v -79.115372 20.754780 -21.063393
v -79.128090 20.782978 -18.599495
v -79.131752 20.447090 -18.194912
v -79.124496 21.016960 -21.581154
v -79.130562 20.444464 -18.424351
v -79.543671 20.893726 -21.414875
v -79.476952 20.795702 -17.487629
v -79.495415 20.754780 -21.063393
v -79.482697 20.782978 -18.599495
v -79.479034 20.447090 -18.194912
v -79.486290 21.016960 -21.581154
v -79.480225 20.444464 -18.424351
v -79.479034 20.791080 -17.891464
v -79.305397 20.709583 -17.891464
v -79.480225 20.788454 -18.120899
v -79.305397 20.706518 -18.120899
v -79.131752 20.791080 -17.891464
v -79.130562 20.788454 -18.120899
v -79.305397 20.178329 -19.045441
v -79.305397 20.175262 -19.274878
v -79.479034 20.259825 -19.045441
v -79.480225 20.257198 -19.274878
v -79.131752 20.259825 -19.045441
v -79.130562 20.257198 -19.274878
vn 0.4209 -0.9070 0.0128
vn 0.9071 -0.4206 0.0129
vn 0.9071 0.4206 0.0129
vn 0.3936 0.9192 0.0114
vn -0.3936 0.9192 0.0114
vn -0.9071 0.4206 0.0129
vn -0.9071 -0.4206 0.0129
vn -0.4209 -0.9070 0.0123
vn -0.0000 -0.0000 1.0000
vn -0.3677 0.9300 -0.0000
vn -0.9174 0.3981 -0.0000
vn -0.9174 -0.3981 -0.0000
vn -0.3677 -0.9299 -0.0000
vn 0.3677 -0.9299 -0.0000
vn 0.9174 -0.3981 -0.0000
vn 0.9174 0.3981 -0.0000
vn 0.3677 0.9300 -0.0000
vn 0.9190 -0.3942 -0.0012
vn 0.3677 0.9299 -0.0000
vn -0.3677 0.9299 -0.0000
vn -0.3710 0.9286 0.0023
vn 0.6675 -0.7361 -0.1118
vn -0.6675 -0.7361 -0.1118
vn -0.0000 -0.0000 -1.0000
vn -1.0000 -0.0000 -0.0000
vn 0.7598 0.6235 0.1844
vn 1.0000 -0.0000 -0.0000
vn -0.8641 -0.4827 -0.1428
vn 0.7391 0.6065 0.2930
vn -0.8497 0.4747 0.2294
vn -0.0000 1.0000 -0.0000
vn 0.0057 -0.0126 0.9999
vn 0.0039 -0.0004 1.0000
vn -0.0057 -0.0014 1.0000
vn 0.0001 -0.0070 1.0000
vn -0.0049 -0.0118 0.9999
vn -0.0060 -0.0147 0.9999
vn 0.0041 -0.0086 1.0000
vn 0.0019 0.0005 1.0000
vn -0.0077 -0.0022 1.0000
vn -0.0001 -0.0059 1.0000
vn 0.0005 -0.0149 0.9999
vn 0.0005 0.0026 1.0000
vn -0.3643 -0.9313 -0.0022
vn -0.9190 0.3942 0.0012
vn 0.9157 0.4019 0.0008
vn 0.3643 0.9313 0.0022
vn -0.9157 -0.4019 -0.0008
vn 0.3675 -0.9300 -0.0023
vn 0.3710 -0.9286 -0.0023
vn -0.3680 -0.9298 -0.0022
vn 0.7256 0.3243 -0.6070
vn 0.7256 -0.3243 -0.6070
vn 0.3040 -0.7918 -0.5298
vn -0.3040 -0.7918 -0.5298
vn -0.7256 -0.3243 -0.6070
vn -0.7256 0.3243 -0.6070
vn -0.3040 0.7918 -0.5298
vn 0.3040 0.7918 -0.5298
vn -0.0004 -0.9954 -0.0958
vn 0.0803 -0.3678 0.9264
vn -0.1867 -0.6029 -0.7757
vn -0.0514 -0.3687 0.9281
vn 0.1867 -0.6029 -0.7757
vn -0.9938 -0.1115 0.0043
vn 0.9938 -0.1115 0.0043
vn 0.9958 -0.0910 -0.0006
vn -0.9959 -0.0899 0.0039
vn 0.0423 -0.4618 0.8860
vn 0.1287 0.3226 -0.9377
vn -0.0584 -0.4603 0.8858
vn -0.1283 0.3217 -0.9381
vn -0.9993 -0.0373 0.0066
vn 0.9995 -0.0294 0.0067
vn 0.9996 -0.0289 0.0040
vn -0.9993 -0.0370 0.0057
vn 0.0241 -0.7464 0.6651
vn 0.1315 -0.2773 -0.9517
vn -0.0602 -0.7524 0.6559
vn -0.1303 -0.2794 -0.9513
vn -0.9678 -0.2515 -0.0000
vn 0.9721 -0.2345 0.0005
vn 0.9764 -0.2160 -0.0000
vn -0.9727 -0.2322 -0.0003
vn -0.9907 -0.1358 0.0023
vn 0.9908 -0.1354 -0.0014
vn 0.9917 -0.1284 0.0035
vn -0.9917 -0.1284 0.0035
vn 0.1127 -0.1627 -0.9802
vn -0.0417 -0.7969 0.6027
vn -0.1127 -0.1627 -0.9802
vn 0.0654 -0.7959 0.6019
vn 0.3715 -0.8899 0.2648
vn 0.3585 -0.8763 -0.3218
vn 0.8319 -0.5548 0.0133
vn -0.8277 -0.5611 0.0141
vn -0.3715 -0.8899 0.2648
vn -0.3638 -0.8894 -0.2767
vn -0.8319 -0.5548 0.0133
vn 0.8265 -0.5627 0.0141
vn -0.4238 -0.9057 0.0123
vn -0.9085 -0.4177 0.0145
vn -0.9085 0.4177 0.0145
vn -0.3496 0.9368 0.0116
vn 0.3496 0.9368 0.0116
vn 0.9085 0.4177 0.0145
vn 0.9085 -0.4177 0.0145
vn 0.4238 -0.9056 0.0128
vn 0.2626 0.6659 -0.6983
vn -0.2626 0.6659 -0.6983
vn 0.9419 0.3357 0.0123
vn -0.9419 0.3357 0.0123
vn -0.2828 0.7073 0.6479
vn 0.2828 0.7073 0.6479
vn 0.4253 -0.9050 0.0128
vn 0.9091 -0.4162 0.0145
vn 0.9091 0.4162 0.0145
vn 0.3961 0.9161 0.0623
vn -0.3961 0.9161 0.0623
vn -0.9091 0.4162 0.0145
vn -0.9091 -0.4162 0.0145
vn -0.4253 -0.9050 0.0123
vn 0.8277 -0.5611 0.0141
vn -0.8271 -0.5619 0.0141
vn 0.2675 -0.7277 -0.6316
vn 0.6785 -0.3167 -0.6628
vn 0.6785 0.3167 -0.6628
vn 0.2675 0.7277 -0.6316
vn -0.2675 0.7277 -0.6316
vn -0.6785 0.3167 -0.6628
vn -0.6785 -0.3167 -0.6628
vn -0.2675 -0.7277 -0.6316
vn -0.8265 -0.5627 0.0141
vn 0.4246 -0.9053 0.0128
vn 0.9088 -0.4169 0.0145
vn 0.9088 0.4169 0.0145
vn 0.3503 0.9366 0.0116
vn -0.3503 0.9366 0.0116
vn -0.9088 0.4169 0.0145
vn -0.9088 -0.4169 0.0145
vn -0.4167 -0.8878 0.1955
vn 0.8271 -0.5619 0.0141
vn 0.4167 -0.8878 0.1955
vn 0.4253 -0.9050 0.0123
vn 0.4238 -0.9057 0.0123
vn 0.3638 -0.8894 -0.2767
vn 0.4209 -0.9070 0.0123
vn -0.4246 -0.9053 0.0128
vn -0.4253 -0.9050 0.0128
vn -0.4238 -0.9056 0.0128
vn -0.3585 -0.8763 -0.3218
vn -0.4209 -0.9070 0.0128
vn -0.2965 -0.6318 0.7162
vn 0.2961 0.6319 -0.7163
vn 0.2965 -0.6318 0.7162
vn -0.2961 0.6319 -0.7163
vn 1.0000 -0.0046 0.0052
vn -1.0000 -0.0046 0.0052
vn -0.4246 -0.9053 0.0123
vn 0.4246 -0.9053 0.0123
vn -0.9997 -0.0247 0.0054
vn -0.4162 0.8880 -0.1955
vn 0.4162 0.8880 -0.1955
vn 0.9997 -0.0247 0.0054
vt 0.937500 0.655472
vt 0.937500 1.000000
vt 0.875000 1.000000
vt 0.875000 0.655473
vt 0.750000 1.000000
vt 0.750000 0.655472
vt 0.625000 1.000000
vt 0.625000 0.655472
vt 0.500000 1.000000
vt 0.500000 0.655473
vt 0.375000 1.000000
vt 0.375000 0.655472
vt 0.250000 1.000000
vt 0.250000 0.655473
vt 0.125000 1.000000
vt 0.125000 0.655473
vt 0.062500 0.655472
vt 0.062500 1.000000
vt 0.000000 1.000000
vt 0.000000 0.655472
vt 0.750000 0.490000
vt 0.919706 0.419706
vt 0.990000 0.250000
vt 0.919706 0.080294
vt 0.750000 0.010000
vt 0.580294 0.080294
vt 0.510000 0.250000
vt 0.580294 0.419706
vt 0.000000 0.000000
vt 0.125000 0.500000
vt 0.250000 0.500000
vt 0.281771 0.455424
vt 0.263485 0.457548
vt 0.210180 0.452773
vt 0.211207 0.452318
vt 0.211503 0.453679
vt 0.248718 0.459291
vt 0.286068 0.453899
vt 0.284699 0.452990
vt 0.251700 0.475858
vt 0.325548 0.446622
vt 0.330149 0.445210
vt 0.250000 0.478409
vt 0.326265 0.446334
vt 0.249805 0.476091
vt 0.173251 0.446172
vt 0.169851 0.445210
vt 0.173522 0.446306
vt 0.173463 0.446050
vt 0.326052 0.446152
vt 0.262028 0.459827
vt 0.290734 0.454761
vt 0.309107 0.451668
vt 0.257777 0.466745
vt 0.295166 0.453027
vt 0.248877 0.461670
vt 0.249110 0.467811
vt 0.312390 0.450351
vt 0.201455 0.452023
vt 0.185399 0.449609
vt 0.202935 0.452836
vt 0.186639 0.450222
vt 0.202638 0.451287
vt 0.186366 0.449050
vt 0.293844 0.451906
vt 0.311415 0.449517
vt 1.000000 0.500000
vt 0.937500 0.500000
vt 0.875000 0.500000
vt 1.000000 1.000000
vt 0.937500 1.000000
vt 0.125000 0.556468
vt 0.125000 0.556468
vt 0.062500 0.500000
vt 0.000000 0.500000
vt 0.683132 1.000000
vt 0.437523 1.000000
vt 0.191915 1.000000
vt 0.187621 1.000000
vt 0.183327 1.000000
vt 0.278821 1.000000
vt 0.383964 1.000000
vt 0.491033 1.000000
vt 0.596158 1.000000
vt 0.691713 1.000000
vt 0.125000 0.655472
vt 0.875000 0.588550
vt 0.062500 0.588550
vt 0.000000 0.588550
vt 0.250000 0.588550
vt 0.125000 0.588550
vt 0.375000 0.588550
vt 0.500000 0.588550
vt 0.625000 0.588550
vt 0.750000 0.588550
vt 0.937500 0.588550
vt 0.937500 0.556468
vt 0.875000 0.556468
vt 0.875000 0.556468
vt 0.750000 0.556468
vt 0.750000 0.500000
vt 0.625000 0.556468
vt 0.625000 0.500000
vt 0.500000 0.556468
vt 0.500000 0.500000
vt 0.375000 0.500000
vt 0.375000 0.556468
vt 0.250000 0.556468
vt 0.062500 0.556468
vt 0.000000 0.556468
vt 0.125000 0.588550
vt 0.437500 1.000000
vt 1.000000 0.556468
vt 1.000000 0.588550
vt 1.000000 0.655472
s 0
f 188/1/1 187/2/1 84/3/1 145/4/1
f 138/4/2 167/3/2 169/5/2 139/6/2
f 139/6/3 169/5/3 170/7/3 150/8/3
f 140/8/4 87/7/4 88/9/4 141/10/4
f 141/10/5 88/9/5 89/11/5 142/12/5
f 151/12/6 172/11/6 173/13/6 143/14/6
f 143/14/7 173/13/7 174/15/7 144/16/7
f 195/17/8 194/18/8 85/19/8 137/20/8
f 131/21/9 132/22/9 4/23/9 162/24/9 163/25/9 164/26/9 5/27/9 136/28/9
f 7/21/9 8/22/9 9/23/9 10/24/9 11/25/9 12/26/9 13/27/9 14/28/9
f 22/29/9 15/29/9 16/29/9 17/29/9 18/29/9 19/29/9 20/29/9 21/29/9
f 8/22/10 7/21/10 15/29/10 16/29/10
f 16/29/11 17/29/11 9/23/11 8/22/11
f 17/29/12 18/29/12 10/24/12 9/23/12
f 18/29/13 19/29/13 11/25/13 10/24/13
f 12/26/14 11/25/14 19/29/14 20/29/14
f 20/29/15 21/29/15 13/27/15 12/26/15
f 21/29/16 22/29/16 14/28/16 13/27/16
f 22/29/17 15/29/17 7/21/17 14/28/17
f 38/29/9 37/29/9 27/29/9
f 34/29/18 35/29/18 83/29/18 82/29/18
f 23/29/19 30/29/19 58/29/19 64/29/19
f 58/29/16 30/29/16 29/29/16 62/29/16
f 62/29/15 29/29/15 28/29/15 41/29/15 61/29/15
f 45/29/14 38/29/14 27/29/14 40/29/14
f 44/29/13 37/29/13 26/29/13 39/29/13
f 67/29/12 39/29/12 26/29/12 25/29/12 66/29/12
f 66/29/11 25/29/11 24/29/11 65/29/11
f 65/29/20 24/29/20 23/29/20 64/29/20
f 68/29/13 44/29/13 39/29/13 67/29/13
f 69/29/13 40/29/13 44/29/13 68/29/13
f 40/29/13 27/29/13 37/29/13 44/29/13
f 60/29/14 45/29/14 40/29/14 69/29/14
f 61/29/14 41/29/14 45/29/14 60/29/14
f 41/29/14 28/29/14 38/29/14 45/29/14
f 59/29/21 31/29/21 77/29/21 76/29/21
f 30/29/9 23/29/9 24/29/9 25/29/9 26/29/9 37/29/9 38/29/9 28/29/9 29/29/9
f 55/29/22 57/29/22 54/29/22 52/29/22
f 56/29/23 55/29/23 52/29/23 53/29/23
f 55/29/24 56/29/24 50/29/24 49/29/24
f 55/29/24 49/29/24 51/29/24 57/29/24
f 53/29/25 47/29/25 50/29/25 56/29/25
f 47/29/26 52/29/26 49/29/26 46/29/26
f 46/29/27 49/29/27 52/29/27
f 52/29/28 47/29/28 46/29/28
f 53/29/29 52/29/29 49/29/29 46/29/29 47/29/29
f 48/29/30 46/29/30 52/29/30 54/29/30
f 52/29/24 48/29/24 54/29/24
f 51/29/27 48/29/27 54/29/27 57/29/27
f 64/29/31 70/29/31 58/29/31
f 72/29/31 43/29/31 60/29/31 61/29/31
f 73/29/31 72/29/31 61/29/31 62/29/31
f 70/29/31 73/29/31 62/29/31 58/29/31
f 43/29/31 69/29/31 60/29/31
f 31/29/32 59/29/32 64/29/32 65/29/32
f 32/29/33 31/29/33 65/29/33 66/29/33
f 33/29/34 32/29/34 66/29/34 67/29/34
f 63/29/35 42/29/35 68/29/35 69/29/35
f 42/29/36 33/29/36 67/29/36 68/29/36
f 59/29/37 36/29/37 70/29/37 64/29/37
f 34/29/38 71/29/38 43/29/38 72/29/38
f 35/29/39 34/29/39 72/29/39 73/29/39
f 36/29/40 35/29/40 73/29/40 70/29/40
f 71/29/41 63/29/41 69/29/41 43/29/41
f 75/29/42 74/29/42 80/29/42
f 81/29/43 76/29/43 77/29/43 78/29/43 79/29/43 74/29/43 75/29/43 82/29/43 83/29/43
f 33/29/44 42/29/44 74/29/44 79/29/44
f 31/29/45 32/29/45 78/29/45 77/29/45
f 35/29/46 36/29/46 81/29/46 83/29/46
f 36/29/47 59/29/47 76/29/47 81/29/47
f 32/29/48 33/29/48 79/29/48 78/29/48
f 63/29/49 71/29/49 75/29/49 80/29/49
f 71/29/50 34/29/50 82/29/50 75/29/50
f 42/29/51 63/29/51 80/29/51 74/29/51
f 136/30/52 5/31/52 13/27/52 14/28/52
f 164/29/53 12/29/53 13/29/53 5/29/53
f 163/29/54 11/29/54 12/29/54 164/29/54
f 162/29/55 10/29/55 11/29/55 163/29/55
f 4/29/56 9/29/56 10/29/56 162/29/56
f 132/29/57 8/29/57 9/29/57 4/29/57
f 131/29/58 7/29/58 8/29/58 132/29/58
f 136/29/59 14/29/59 7/29/59 131/29/59
f 93/32/60 2/33/60 94/34/60 97/35/60 96/36/60 92/37/60 95/38/60 98/39/60
f 123/40/61 124/41/61 99/42/61 100/43/61
f 125/44/62 126/45/62 102/43/62 101/42/62
f 127/46/63 123/40/63 100/43/63 103/47/63
f 126/45/64 128/48/64 104/47/64 102/43/64
f 128/48/65 129/49/65 105/47/65 104/47/65
f 130/50/66 125/44/66 101/42/66 106/42/66
f 124/41/67 130/50/67 106/42/67 99/42/67
f 129/49/68 127/46/68 103/47/68 105/47/68
f 116/51/69 115/52/69 107/53/69 108/54/69
f 117/55/70 118/56/70 110/57/70 109/58/70
f 119/59/71 116/51/71 108/54/71 111/60/71
f 118/56/72 120/61/72 112/62/72 110/57/72
f 120/61/73 121/63/73 113/64/73 112/62/73
f 122/65/74 117/55/74 109/58/74 114/66/74
f 115/52/75 122/65/75 114/66/75 107/53/75
f 121/63/76 119/59/76 111/60/76 113/64/76
f 2/33/77 93/32/77 115/52/77 116/51/77
f 95/38/78 92/37/78 118/56/78 117/55/78
f 94/34/79 2/33/79 116/51/79 119/59/79
f 92/37/80 96/36/80 120/61/80 118/56/80
f 96/36/81 97/35/81 121/63/81 120/61/81
f 98/39/82 95/38/82 117/55/82 122/65/82
f 93/32/83 98/39/83 122/65/83 115/52/83
f 97/35/84 94/34/84 119/59/84 121/63/84
f 113/64/85 111/60/85 127/46/85 129/49/85
f 107/53/86 114/66/86 130/50/86 124/41/86
f 114/66/87 109/58/87 125/44/87 130/50/87
f 112/62/88 113/64/88 129/49/88 128/48/88
f 110/57/89 112/62/89 128/48/89 126/45/89
f 111/60/90 108/54/90 123/40/90 127/46/90
f 109/58/91 110/57/91 126/45/91 125/44/91
f 108/54/92 107/53/92 124/41/92 123/40/92
f 1/67/93 186/68/93 3/69/93 132/69/93 131/67/93
f 187/2/94 85/70/94 168/70/94 185/71/94
f 145/4/95 84/3/95 167/3/95 138/4/95
f 159/72/96 6/30/96 136/30/96 157/73/96
f 6/30/97 193/74/97 1/75/97 131/75/97 136/30/97
f 194/18/98 91/15/98 174/15/98 192/18/98
f 133/76/24 190/77/24 134/78/24 197/79/24 135/80/24 90/81/24 149/82/24 147/83/24 148/84/24 86/85/24
f 91/15/99 146/86/99 144/16/99 174/15/99
f 183/87/100 145/4/100 138/4/100 176/87/100
f 201/88/101 195/17/101 137/20/101 202/89/101
f 181/90/102 143/14/102 144/16/102 182/91/102
f 180/92/103 151/12/103 143/14/103 181/90/103
f 179/93/104 152/10/104 151/12/104 180/92/104
f 178/94/105 150/8/105 152/10/105 179/93/105
f 177/95/106 139/6/106 150/8/106 178/94/106
f 176/87/107 138/4/107 139/6/107 177/95/107
f 204/96/108 188/1/108 145/4/108 183/87/108
f 88/9/109 87/7/109 170/7/109 171/9/109
f 89/11/110 88/9/110 171/9/110 172/11/110
f 87/7/111 140/8/111 150/8/111 170/7/111
f 142/12/112 89/11/112 172/11/112 151/12/112
f 141/10/113 142/12/113 151/12/113 152/10/113
f 140/8/114 141/10/114 152/10/114 150/8/114
f 186/68/115 203/97/115 158/98/115 3/69/115
f 132/69/116 153/99/116 154/100/116 4/101/116
f 4/101/117 154/100/117 161/102/117 162/103/117
f 162/103/118 161/102/118 166/104/118 163/105/118
f 164/106/119 163/105/119 166/104/119 165/107/119
f 164/106/120 165/107/120 156/108/120 5/31/120
f 5/31/121 156/108/121 157/73/121 136/30/121
f 193/74/122 199/109/122 200/110/122 1/75/122
f 3/69/123 158/98/123 153/99/123 132/69/123
f 184/111/124 159/72/124 157/73/124 182/91/124
f 166/104/24 161/102/24 155/104/24
f 166/104/24 155/104/24 165/107/24
f 190/77/125 133/76/125 167/3/125 185/112/125
f 133/76/126 86/85/126 169/5/126 167/3/126
f 86/85/127 148/84/127 170/7/127 169/5/127
f 148/84/128 147/83/128 171/9/128 170/7/128
f 147/83/129 149/82/129 172/11/129 171/9/129
f 149/82/130 90/81/130 173/13/130 172/11/130
f 90/81/131 135/80/131 174/15/131 173/13/131
f 197/79/132 134/78/132 168/19/132 192/18/132
f 146/86/133 184/111/133 182/91/133 144/16/133
f 203/97/134 204/96/134 183/87/134 158/98/134
f 153/99/135 176/87/135 177/95/135 154/100/135
f 154/100/136 177/95/136 178/94/136 161/102/136
f 161/102/137 178/94/137 179/93/137 155/104/137
f 155/104/138 179/93/138 180/92/138 165/107/138
f 165/107/139 180/92/139 181/90/139 156/108/139
f 156/108/140 181/90/140 182/91/140 157/73/140
f 160/110/141 196/109/141 207/109/141 205/110/141
f 158/98/142 183/87/142 176/87/142 153/99/142
f 189/97/143 160/113/143 205/113/143 209/97/143
f 134/78/125 190/77/125 185/112/125 168/19/125
f 1/67/144 200/113/144 203/97/144 186/68/144
f 202/114/145 137/115/145 188/1/145 204/96/145
f 84/3/146 187/2/146 185/71/146 167/3/146
f 137/115/147 85/70/147 187/2/147 188/1/147
f 159/72/148 184/111/148 201/88/148 199/109/148
f 135/80/132 197/79/132 192/18/132 174/15/132
f 6/30/149 159/72/149 199/109/149 193/74/149
f 184/111/150 146/86/150 195/17/150 201/88/150
f 85/19/151 194/18/151 192/18/151 168/19/151
f 146/86/152 91/15/152 194/18/152 195/17/152
f 196/109/153 160/110/153 200/110/153 199/109/153
f 175/89/154 198/88/154 201/88/154 202/89/154
f 160/113/155 189/97/155 203/97/155 200/113/155
f 191/96/156 175/114/156 202/114/156 204/96/156
f 189/97/157 191/96/157 204/96/157 203/97/157
f 198/88/158 196/109/158 199/109/158 201/88/158
f 207/109/159 208/88/159 206/89/159 205/110/159
f 205/113/160 206/114/160 210/96/160 209/97/160
f 196/109/161 198/88/161 208/88/161 207/109/161
f 175/114/162 191/96/162 210/96/162 206/114/162
f 198/88/163 175/89/163 206/89/163 208/88/163
f 191/96/164 189/97/164 209/97/164 210/96/164
l 27 46
l 37 47
l 38 48
l 40 49
l 44 50
l 45 51
